<?xml version="1.0" encoding="UTF-8" standalone="no"?>
<!-- Created with Inkscape (http://www.inkscape.org/) -->

<svg
   xmlns:dc="http://purl.org/dc/elements/1.1/"
   xmlns:cc="http://creativecommons.org/ns#"
   xmlns:rdf="http://www.w3.org/1999/02/22-rdf-syntax-ns#"
   xmlns:svg="http://www.w3.org/2000/svg"
   xmlns="http://www.w3.org/2000/svg"
   xmlns:sodipodi="http://sodipodi.sourceforge.net/DTD/sodipodi-0.dtd"
   xmlns:inkscape="http://www.inkscape.org/namespaces/inkscape"
   width="210mm"
   height="297mm"
   viewBox="0 0 744.09448819 1052.3622047"
   id="svg9014"
   version="1.1"
   inkscape:version="0.91 r13725"
   sodipodi:docname="Plaque 6.svg">
  <defs
     id="defs9016" />
  <sodipodi:namedview
     id="base"
     pagecolor="#ffffff"
     bordercolor="#666666"
     borderopacity="1.0"
     inkscape:pageopacity="0.0"
     inkscape:pageshadow="2"
     inkscape:zoom="1.4"
     inkscape:cx="305.82653"
     inkscape:cy="417.09411"
     inkscape:document-units="px"
     inkscape:current-layer="layer1"
     showgrid="false"
     inkscape:window-width="1920"
     inkscape:window-height="1017"
     inkscape:window-x="-8"
     inkscape:window-y="-8"
     inkscape:window-maximized="1" />
  <metadata
     id="metadata9019">
    <rdf:RDF>
      <cc:Work
         rdf:about="">
        <dc:format>image/svg+xml</dc:format>
        <dc:type
           rdf:resource="http://purl.org/dc/dcmitype/StillImage" />
        <dc:title></dc:title>
      </cc:Work>
    </rdf:RDF>
  </metadata>
  <g
     inkscape:label="Calque 1"
     inkscape:groupmode="layer"
     id="layer1">
    <path
       d="m 295.61079,483.72902 c -0.52711,0.1759 -0.3149,-0.38809 -0.35118,-0.70294 -6.38755,-0.52771 -14.00524,0.17522 -20.39211,-0.35181 l 0,-14.94027 c -1.19386,0.16085 -0.15403,-0.38808 -0.35187,-0.70293 -0.52026,-0.83504 -2.24122,-1.71387 -2.98807,-2.28539 -20.28257,-15.58435 -40.91566,-31.29394 -61.0004,-46.75371 -1.34788,0.63723 -1.99205,1.94796 -3.33993,4.04238 -12.40066,19.33447 -21.45385,41.75925 -26.89672,67.14361 -6.07198,28.34257 -5.33951,64.44753 1.75861,89.99274 -2.92304,4.76038 -5.34772,9.62342 -5.80157,16.52204 -0.6298,9.56525 2.69575,17.66508 7.20764,23.37754 4.644,5.88083 11.27251,9.96018 18.98535,11.60081 0.96728,1.77205 2.24123,3.93288 3.69179,6.3271 0.84269,1.39903 2.86417,5.44894 4.04296,5.62484 0.87213,0.13211 2.92305,-1.77205 4.04365,-2.63652 19.84243,-15.35025 41.01082,-31.33089 60.12145,-46.22667 0.49767,-0.30047 -0.75506,-0.88637 0.52711,-0.70362 l 0,-15.11549 c 5.85222,-0.154 12.61286,0.20465 18.28232,0 0.60788,-0.0225 1.91948,0.44626 2.10979,-0.52772 1.37663,-0.25598 0.87897,-3.36135 0.87897,-5.80006 0,-28.71628 0.44632,-57.30046 0,-85.42332 -0.0151,-0.73237 0.46822,-2.03625 -0.52779,-2.46061 z m 254.02075,-65.73705 c -21.26354,16.35367 -42.63664,32.59714 -63.81257,49.0391 -0.49082,0.29979 0.75438,0.88637 -0.52778,0.70293 l 0,15.11618 -10.37165,0 c -2.89291,0 -8.53294,-0.84941 -10.01978,0.35112 -0.48329,0.39562 -0.0732,0.8501 -0.70304,0.52772 0.0363,29.719 -0.65238,61.06427 -0.17661,90.87158 0.008,0.61532 -0.4607,2.09511 0.52779,2.46129 0.22727,1.35454 3.28174,0.87884 5.09785,0.87884 l 15.64544,0 0,15.11549 c 1.19454,-0.16084 0.15402,0.38809 0.35186,0.70362 0.57844,0.91511 2.32952,1.64748 3.16399,2.28471 19.13254,14.63295 37.78863,29.29464 56.95744,43.94196 1.31095,1.00342 3.52342,2.73919 4.21892,2.63652 1.28899,-0.19028 3.99915,-5.62484 5.27379,-7.73365 11.94609,-19.74445 20.67758,-42.05971 25.48997,-68.19834 5.70571,-31.01536 3.39127,-69.81639 -5.27379,-94.91465 4.9589,-3.50783 8.56988,-8.67067 9.1415,-16.17023 0.65855,-8.63508 -2.74712,-15.22638 -7.38357,-19.86218 -4.67346,-4.67209 -11.49225,-7.94583 -20.04028,-6.50301 -2.40277,-3.79392 -4.45369,-8.72953 -7.55948,-11.249 z m -194.25117,17.22498 c -0.007,-0.55647 0.57913,-2.29224 -0.70303,-2.46062 0.27108,-1.06227 -1.08434,-0.67418 -1.40608,-0.70362 -10.69407,-0.98835 -22.09869,0.74743 -32.52168,0 -0.25671,0.0294 -0.16156,0.42505 -0.17593,0.70362 -1.2671,0.0876 -0.68866,1.75016 -0.70304,2.28471 -0.0369,1.05475 0,2.23406 0,3.16424 -0.0151,47.14931 0.0143,94.55531 0,141.49313 -0.008,15.26949 -0.47645,31.07422 0,46.05077 0.0219,0.73237 -0.45454,2.13892 0.70304,2.46061 -0.0144,0.93018 1.23766,0.50582 1.582,0.52772 9.47078,0.56399 19.61514,0 28.8299,0 1.21576,0 3.1058,0.54893 3.86771,-0.70294 0.99603,-0.41751 0.52026,-1.83091 0.52711,-2.46129 0.24918,-15.43102 0,-30.76622 0,-46.05077 0.007,-48.01379 0.7619,-96.5991 0,-144.30556 z m 42.54215,-0.17591 c -0.0219,-0.54893 0.54902,-2.37984 -0.87896,-2.28471 0.27109,-1.06227 -1.08433,-0.67418 -1.40607,-0.70362 -10.63588,-0.98082 -21.98164,0.7399 -32.34644,0 -0.25602,0.0294 -0.16087,0.42505 -0.17593,0.70362 -1.40607,-0.154 -0.84953,1.61805 -0.87896,2.10881 -0.0582,1.06227 0,2.27786 0,3.16423 l 0,141.31723 c 0,15.41596 -0.54901,31.2645 0,46.40258 0.0226,0.54209 -0.54901,2.38806 0.87896,2.28539 -0.27108,1.06912 1.08433,0.67351 1.40675,0.70294 0.75438,0.0732 1.66278,0 2.28504,0 l 26.72079,0 c 1.92633,0 3.09075,0.19028 3.86772,-0.70294 0.94468,-1.0917 0.5271,-3.68373 0.5271,-5.62484 l 0,-141.14133 c 0,-15.31398 0.54217,-31.25013 0,-46.22736 z m 41.6632,-2.28471 c 0.27039,-1.06227 -1.08433,-0.67418 -1.40676,-0.70362 -10.69407,-0.98835 -22.0987,0.74743 -32.52169,0 -0.11706,0.40315 -0.35186,0.53525 -0.5271,0.70362 -0.60104,0.55646 -0.35186,3.72754 -0.35186,5.62417 0,13.27088 -0.34433,26.27004 0,39.37255 0.10269,3.91781 1.50191,5.60226 3.16469,8.96361 1.06173,2.15329 2.81966,4.5263 3.16399,6.67959 0.39567,2.50442 0,5.55161 0,8.43658 -0.008,40.9687 0.008,82.25225 0,122.68639 0,1.09855 -0.55654,2.8925 0.70303,3.69057 0.24919,0.98151 1.61145,0.50582 2.28573,0.52772 5.48599,0.1759 11.66818,0.27789 16.87557,0 0.79134,-0.0438 2.07282,0.40246 2.28502,-0.70294 1.29724,-0.68171 0.70373,-2.49757 0.70373,-3.51535 l 0,-122.86229 c 0,-2.91441 -0.43949,-6.15872 0,-8.61249 0.38061,-2.12386 2.24122,-4.49686 3.33992,-6.6789 0.85706,-1.70635 1.875,-3.44213 2.46097,-4.92191 0.17593,-0.4319 0.008,-1.28131 0.52779,-1.40588 -0.17593,-14.58161 0.23412,-30.37881 0,-44.8208 -0.007,-0.57152 0.55654,-2.36548 -0.70303,-2.46062 z m 10.72281,115.12796 0,29.52872 11.95434,0 0,-30.05644 -11.77841,0 c -0.20536,0.0294 -0.19031,0.27858 -0.17593,0.52772 z"
       style="fill:none;stroke:#231f20;stroke-width:0.73241836;stroke-linecap:butt;stroke-linejoin:miter;stroke-miterlimit:10;stroke-dasharray:none;stroke-opacity:1"
       id="path5611"
       inkscape:connector-curvature="0"
       sodipodi:nodetypes="cccccccccccccccccccccsccccccsccccscccccsccccccccccccccccccsccccccccccsscccsscsscccccscccccccccsscccccccccccc" />
  </g>
</svg>
