<?xml version="1.0" encoding="UTF-8" standalone="no"?>
<!-- Created with Inkscape (http://www.inkscape.org/) -->

<svg
   xmlns:dc="http://purl.org/dc/elements/1.1/"
   xmlns:cc="http://creativecommons.org/ns#"
   xmlns:rdf="http://www.w3.org/1999/02/22-rdf-syntax-ns#"
   xmlns:svg="http://www.w3.org/2000/svg"
   xmlns="http://www.w3.org/2000/svg"
   xmlns:sodipodi="http://sodipodi.sourceforge.net/DTD/sodipodi-0.dtd"
   xmlns:inkscape="http://www.inkscape.org/namespaces/inkscape"
   width="210mm"
   height="297mm"
   viewBox="0 0 744.09448819 1052.3622047"
   id="svg6183"
   version="1.1"
   inkscape:version="0.91 r13725"
   sodipodi:docname="Plaque 2.svg">
  <defs
     id="defs6185" />
  <sodipodi:namedview
     id="base"
     pagecolor="#ffffff"
     bordercolor="#666666"
     borderopacity="1.0"
     inkscape:pageopacity="0.0"
     inkscape:pageshadow="2"
     inkscape:zoom="0.98994949"
     inkscape:cx="218.9467"
     inkscape:cy="634.1812"
     inkscape:document-units="px"
     inkscape:current-layer="layer1"
     showgrid="false"
     inkscape:window-width="1920"
     inkscape:window-height="1017"
     inkscape:window-x="-8"
     inkscape:window-y="-8"
     inkscape:window-maximized="1" />
  <metadata
     id="metadata6188">
    <rdf:RDF>
      <cc:Work
         rdf:about="">
        <dc:format>image/svg+xml</dc:format>
        <dc:type
           rdf:resource="http://purl.org/dc/dcmitype/StillImage" />
        <dc:title></dc:title>
      </cc:Work>
    </rdf:RDF>
  </metadata>
  <g
     inkscape:label="Calque 1"
     inkscape:groupmode="layer"
     id="layer1">
    <path
       d="m 380.64992,397.06772 c -1.08364,2.61531 -2.1091,4.42432 -2.1091,8.43728 0,10.72471 6.8996,18.84986 14.94239,22.14689 11.05277,4.53039 22.90372,-0.11979 28.47802,-7.38253 1.39923,-1.82818 3.40633,-5.09782 3.86772,-7.55774 0.16087,-0.85283 0.0582,-1.96439 0.17593,-2.98833 0.45386,-3.90619 0.2704,-7.52421 -0.70372,-10.72198 -2.95863,-9.69598 -11.36766,-16.63566 -23.20424,-16.52205 -6.82703,0.065 -11.77839,2.72413 -15.11832,5.62485 -3.12018,2.7077 -4.82677,5.32711 -6.32868,8.96361 z m 154.87361,93.33288 c 0.65922,-0.13073 0.85706,0.19781 0.87896,0.70294 10.81865,-1.74468 22.00355,-3.36136 32.87354,-5.09714 3.61101,-0.5763 7.20011,-0.99109 10.54756,-2.1088 0.0219,-3.95409 -1.23082,-9.57073 -1.93385,-13.7103 -0.25671,-1.50101 -0.0219,-3.31481 -1.23083,-4.2183 -14.42212,2.33605 -29.20365,4.3107 -43.24517,7.03072 0.85706,0.50102 -0.26355,0.35523 -0.35118,0.52703 -0.37376,0.71662 0.13897,2.86718 0.35118,4.21898 0.68182,4.26072 1.57516,9.19701 2.10979,12.65487 z m 1.40675,19.51037 c -0.0294,0.2601 -0.42511,0.16085 -0.70371,0.17591 0.0807,3.23199 -1.31092,9.37839 0.17592,11.249 14.33451,1.13483 29.32825,1.60847 43.94821,2.46062 0.58597,-3.56053 1.08433,-8.72611 0.52711,-12.30376 -14.80275,-0.48869 -28.96886,-1.62078 -43.77229,-2.10948 -0.20467,0.0294 -0.1903,0.27857 -0.17524,0.52771 z m -7.03171,44.469 c 14.10724,3.70701 28.6608,7.90408 42.54145,11.24969 1.36979,-3.40516 2.72452,-7.6652 2.98875,-11.60081 -13.95389,-3.97874 -28.20763,-7.65083 -42.36621,-11.42492 -0.20536,0.0301 -0.19029,0.27721 -0.17592,0.52703 -0.1465,0.5154 -0.43948,-0.22861 -0.87897,0 -0.76943,3.56464 -1.89689,6.77131 -2.63689,10.37017 0.87144,-0.0397 0.57844,0.25256 0.52779,0.87884 z M 424.59813,543.65868 c -0.10953,-1.17521 -1.09118,-0.60027 -1.582,-0.52772 -34.16254,5.05127 -70.78604,10.72746 -105.12383,15.99502 -0.9084,0.13894 -2.39524,0.063 -2.81282,1.23065 -0.91593,0.99793 -0.037,2.97874 0.17593,4.39351 7.58825,50.33682 15.44006,101.10075 23.20424,151.16106 36.91649,7.6036 83.41396,2.0992 111.62844,-9.6672 -8.05718,-54.28275 -16.5463,-108.13698 -24.78693,-162.2342 -0.0219,-0.65091 -0.25602,-0.44215 -0.70303,-0.35112 z m 92.11598,41.48067 c 10.50307,5.60157 23.26311,11.83011 34.45484,17.57678 1.34788,0.69199 3.88209,2.36616 4.74668,2.10949 1.42798,-0.42505 2.30694,-3.82267 2.98875,-5.09713 1.08365,-2.01503 2.36513,-3.76039 2.46097,-5.27303 -12.7087,-6.97938 -25.95203,-13.42147 -39.02628,-20.03809 -0.0951,-0.50239 -0.25602,0.28473 -0.35186,0.35181 -0.30736,0.32648 -0.51205,-0.076 -0.87828,-0.1759 -1.47247,3.33534 -3.34061,6.26686 -4.74668,9.66723 0.70304,-0.0246 0.46892,0.45174 0.35186,0.87884 z M 203.6263,445.93161 c 0.88649,0.88363 1.73602,1.46473 2.28572,2.1088 -0.55655,0.55509 -1.06243,1.28266 -1.582,1.93358 -0.92278,1.14852 -0.86459,0.89595 -0.87896,1.75768 -0.13213,0.67487 0.68866,1.21491 1.05489,1.58178 0.54901,0.55167 1.06927,1.1136 1.582,1.58177 31.29085,28.64168 61.08799,58.38395 92.29121,87.181 1.47179,1.35795 4.10184,4.25252 5.62565,5.27303 0.53463,0.35661 0.23411,-0.0158 0.87828,0 1.39169,0.0342 2.05091,-1.32646 3.51585,-2.46061 1.46494,0.67419 3.42071,4.03486 4.92261,4.57011 0.19784,0.0698 0.28546,-0.35935 0.35118,-0.35181 0.19783,0.026 0.16908,0.52702 0.17593,0.52771 1.71411,0.19096 4.22642,-0.67761 6.67985,-1.05475 32.07534,-4.92122 63.62974,-9.65149 95.80777,-14.58846 2.15291,-0.33059 5.98434,-0.73715 6.50392,-1.40655 0.0808,-0.10198 -0.23412,-0.29568 -0.17593,-0.35112 0.0589,-0.0602 0.49082,0.0705 0.52779,0 0.54901,-1.14304 -0.4032,-4.17928 -0.70304,-6.15188 -1.0768,-7.07041 -2.10978,-13.84309 -2.81282,-19.86218 5.66946,-1.18205 10.41545,-3.37231 14.23936,-6.67891 6.07197,-5.24702 11.54359,-14.27566 10.72281,-25.48634 -1.31092,-17.9635 -15.22785,-30.07423 -34.63077,-29.1776 -0.24918,-2.97053 -0.79887,-5.64332 -1.23083,-8.43658 -17.21304,1.62283 -29.60616,-6.65701 -34.98263,-18.80744 -2.26312,-5.10466 -3.22287,-11.9492 -1.75793,-18.80743 1.17196,-1.32305 1.15758,-3.1088 1.75793,-4.56943 3.96972,-9.67681 11.92489,-15.77529 22.85307,-18.2804 0.54969,-0.12594 1.71411,-0.0582 1.93385,-0.87884 -0.0219,-0.31553 0.17593,-0.41136 0.52711,-0.35112 -2.13854,-17.60759 -5.46409,-35.55193 -7.91068,-53.4333 -5.6763,-0.7926 -14.21676,-0.84667 -21.09513,-0.52771 -34.55753,1.6071 -62.22299,10.98481 -85.61069,24.08047 -1.58268,0.88431 -9.09769,4.95682 -9.31743,6.15188 -0.25602,1.39696 3.31802,4.87126 4.57075,6.503 11.92489,15.58228 23.43904,30.64233 34.98263,45.87555 -12.90585,12.93413 -25.65083,26.02774 -38.84966,38.66893 -15.27234,-11.72539 -30.6104,-23.68417 -46.05798,-35.50539 -1.50191,-1.14783 -5.60374,-4.82745 -6.85579,-4.56941 -0.72562,0.14989 -2.17551,2.84596 -3.16468,4.39419 -6.74625,10.59262 -13.05987,21.95114 -17.57928,34.62586 -1.17196,3.28401 -0.58597,2.9322 1.40607,4.92192 z"
       style="fill:none;stroke:#231f20;stroke-width:0.73241812;stroke-linecap:butt;stroke-linejoin:miter;stroke-miterlimit:10;stroke-dasharray:none;stroke-opacity:1"
       id="path5611"
       inkscape:connector-curvature="0"
       sodipodi:nodetypes="cscccccccccccccccccccccccccccccccccccccccccccccccccccccccccccccccccccccccccccccccccccccccccccccc" />
  </g>
</svg>
