<?xml version="1.0" encoding="UTF-8" standalone="no"?>
<!-- Created with Inkscape (http://www.inkscape.org/) -->

<svg
   xmlns:dc="http://purl.org/dc/elements/1.1/"
   xmlns:cc="http://creativecommons.org/ns#"
   xmlns:rdf="http://www.w3.org/1999/02/22-rdf-syntax-ns#"
   xmlns:svg="http://www.w3.org/2000/svg"
   xmlns="http://www.w3.org/2000/svg"
   xmlns:sodipodi="http://sodipodi.sourceforge.net/DTD/sodipodi-0.dtd"
   xmlns:inkscape="http://www.inkscape.org/namespaces/inkscape"
   width="210mm"
   height="297mm"
   viewBox="0 0 744.09448819 1052.3622047"
   id="svg8451"
   version="1.1"
   inkscape:version="0.91 r13725"
   sodipodi:docname="Plaque 5.svg">
  <defs
     id="defs8453" />
  <sodipodi:namedview
     id="base"
     pagecolor="#ffffff"
     bordercolor="#666666"
     borderopacity="1.0"
     inkscape:pageopacity="0.0"
     inkscape:pageshadow="2"
     inkscape:zoom="1.979899"
     inkscape:cx="330.59349"
     inkscape:cy="521.798"
     inkscape:document-units="px"
     inkscape:current-layer="layer1"
     showgrid="false"
     inkscape:window-width="1920"
     inkscape:window-height="1017"
     inkscape:window-x="-8"
     inkscape:window-y="-8"
     inkscape:window-maximized="1" />
  <metadata
     id="metadata8456">
    <rdf:RDF>
      <cc:Work
         rdf:about="">
        <dc:format>image/svg+xml</dc:format>
        <dc:type
           rdf:resource="http://purl.org/dc/dcmitype/StillImage" />
        <dc:title></dc:title>
      </cc:Work>
    </rdf:RDF>
  </metadata>
  <g
     inkscape:label="Calque 1"
     inkscape:groupmode="layer"
     id="layer1">
    <path
       d="m 303.78394,389.64312 c 0.93783,1.03969 2.4904,-0.61532 3.34061,-1.05474 18.00371,-9.25725 39.86075,-16.34682 66.80129,-16.34682 26.8666,0 48.83386,7.19908 66.62535,16.34682 0.9084,0.46885 2.24875,2.05062 3.51586,1.05474 0.76191,0.70293 1.06174,-0.63038 1.23014,-0.87884 11.08211,-20.00124 22.66849,-40.70213 32.1705,-58.3552 -13.77044,-8.16623 -30.30989,-15.26949 -48.69489,-20.0374 -18.42881,-4.77544 -39.20907,-8.28327 -62.0546,-7.20662 -39.01124,1.84529 -71.35014,12.42832 -96.51015,27.24402 10.07865,18.72667 20.75766,37.96599 31.11492,56.42162 0.58598,1.04721 1.26026,3.39832 2.46097,2.81242 z m 116.55107,57.29978 c -8.26938,-5.38255 -17.27945,-10.02589 -28.47871,-12.47897 1.12061,-4.68031 2.10226,-9.49886 3.34061,-14.06143 14.95677,2.27033 26.80773,7.64535 36.73988,14.94026 -3.94028,3.79325 -7.80799,7.66042 -11.60178,11.60014 z m 56.07779,1.40655 c -11.03086,-16.50767 -24.77188,-29.34598 -42.36622,-39.37187 -17.08093,-9.73362 -39.81695,-17.40156 -66.62535,-15.64388 -44.65125,2.92946 -75.70046,25.30359 -94.92815,53.25807 -9.85138,14.32495 -17.48413,32.17278 -20.21618,53.7851 -2.56364,20.25711 0.98165,41.84686 6.32868,56.77275 0.52711,1.47226 1.53819,5.80759 2.81283,6.15188 1.64018,0.44694 5.14166,-1.91853 6.85578,-2.63652 2.69508,-1.12799 5.02461,-1.66254 6.85579,-3.16355 -4.76106,-16.99843 -2.19742,-37.27744 3.33992,-51.14858 5.61812,-14.06143 15.39694,-25.66978 26.36893,-33.92361 10.98705,-8.26821 26.07594,-15.23253 44.12414,-15.99433 19.98891,-0.84256 34.7629,5.03142 47.46408,12.83078 -10.07113,10.32636 -20.97808,20.9751 -31.11561,31.11118 -1.02546,1.02532 -2.64374,2.29224 -3.33993,3.33946 -0.24918,0.37302 0.14649,0.9815 -0.52711,1.05474 0.98918,5.74873 2.1536,11.32224 3.33993,16.87317 -3.0175,3.42775 -6.20409,6.68712 -9.66861,9.66723 -6.59223,-4.65771 -22.05488,-6.87671 -30.41189,-2.98764 -0.66675,0.30732 -1.37731,0.43189 -2.10978,0.70293 -9.47831,3.53726 -16.69279,10.48037 -20.91922,18.98266 -5.29569,10.6638 -5.44218,27.11945 1.23083,36.38422 -5.34772,5.84455 -11.47103,10.91225 -16.52508,17.04975 22.76545,22.16127 56.40774,41.48067 103.36661,35.68061 20.30381,-2.50442 37.15063,-9.90885 51.33111,-19.15856 14.45157,-9.42562 26.11975,-21.61233 35.51043,-35.15357 25.13125,16.06072 49.96884,32.41438 75.23907,48.33616 6.43136,-9.05191 12.06385,-19.79579 16.70032,-30.40757 1.57515,-3.60365 3.34746,-7.27986 4.04364,-11.07379 -2.24875,-1.32578 -5.26693,-1.88224 -7.5595,-3.16354 7.72038,-19.9936 12.33493,-43.09256 13.00854,-70.13193 2.52736,-0.22655 5.96997,0.46133 7.91067,-0.35112 0.65923,-24.46856 -3.55967,-46.0364 -9.66861,-65.03411 -6.11577,-19.01962 -14.23183,-36.14261 -24.43506,-50.97268 -25.34347,15.89987 -50.08591,32.41439 -75.415,48.33616 z m -264.39232,17.22498 c -4.00668,-1.22312 -9.48583,-2.74603 -12.48143,-3.69127 -1.42113,2.21901 -2.22685,6.25455 -3.164,9.84314 -0.79887,3.06841 -1.56078,6.34215 -2.10979,9.31542 -1.25957,6.79664 -2.46849,13.76917 -2.10979,19.51037 5.71396,0.38125 11.19242,0.99657 16.87626,1.40656 -0.20537,-0.73237 0.27108,-0.7837 0.87896,-0.70294 0.92278,-12.37698 3.47958,-23.12086 6.32868,-33.57179 -0.66675,-1.18685 -2.30009,-1.5236 -4.21889,-2.10949 z m 24.08321,7.38252 c -5.29569,-1.6776 -10.75978,-3.18613 -15.9966,-4.92191 -1.03299,1.0698 -1.34036,2.67348 -1.93386,4.74601 -1.09871,3.8521 -2.05845,8.14432 -2.81282,12.12784 -1.12815,5.97597 -2.30694,12.18671 -1.93386,17.40088 5.43534,0.65913 11.28004,0.90828 16.70032,1.58246 -0.13897,-0.85694 0.31489,-0.98903 0.87896,-0.70362 0.85706,-10.80206 3.01066,-20.30844 5.62565,-29.35282 -0.79819,0.10951 -0.72563,-0.39561 -0.52779,-0.87884 z"
       style="fill:none;stroke:#231f20;stroke-width:0.73241824;stroke-linecap:butt;stroke-linejoin:miter;stroke-miterlimit:10;stroke-dasharray:none;stroke-opacity:1"
       id="path5611"
       inkscape:connector-curvature="0"
       sodipodi:nodetypes="ccscccccccccccccccccccccccccccsccccccccccccccccccscccccccccccccccccccc" />
  </g>
</svg>
