<?xml version="1.0" encoding="UTF-8" standalone="no"?>
<!-- Created with Inkscape (http://www.inkscape.org/) -->

<svg
   xmlns:dc="http://purl.org/dc/elements/1.1/"
   xmlns:cc="http://creativecommons.org/ns#"
   xmlns:rdf="http://www.w3.org/1999/02/22-rdf-syntax-ns#"
   xmlns:svg="http://www.w3.org/2000/svg"
   xmlns="http://www.w3.org/2000/svg"
   xmlns:sodipodi="http://sodipodi.sourceforge.net/DTD/sodipodi-0.dtd"
   xmlns:inkscape="http://www.inkscape.org/namespaces/inkscape"
   width="210mm"
   height="297mm"
   viewBox="0 0 744.09448819 1052.3622047"
   id="svg7888"
   version="1.1"
   inkscape:version="0.91 r13725"
   sodipodi:docname="Plaque 4.svg">
  <defs
     id="defs7890" />
  <sodipodi:namedview
     id="base"
     pagecolor="#ffffff"
     bordercolor="#666666"
     borderopacity="1.0"
     inkscape:pageopacity="0.0"
     inkscape:pageshadow="2"
     inkscape:zoom="1.4"
     inkscape:cx="265.17702"
     inkscape:cy="469.28807"
     inkscape:document-units="px"
     inkscape:current-layer="layer1"
     showgrid="false"
     inkscape:window-width="1920"
     inkscape:window-height="1017"
     inkscape:window-x="-8"
     inkscape:window-y="-8"
     inkscape:window-maximized="1" />
  <metadata
     id="metadata7893">
    <rdf:RDF>
      <cc:Work
         rdf:about="">
        <dc:format>image/svg+xml</dc:format>
        <dc:type
           rdf:resource="http://purl.org/dc/dcmitype/StillImage" />
        <dc:title></dc:title>
      </cc:Work>
    </rdf:RDF>
  </metadata>
  <g
     inkscape:label="Calque 1"
     inkscape:groupmode="layer"
     id="layer1">
    <path
       d="m 337.75583,412.54678 c 1.365,-0.42505 3.32692,-0.44695 4.21889,-1.93358 0.30668,-2.34357 -0.77286,-4.82609 -1.40607,-7.20662 -4.24763,-15.95805 -8.67804,-31.81412 -12.83327,-47.80845 -0.55996,-2.16082 -0.61814,-2.98833 -2.46095,-2.4613 -52.32704,14.88209 -92.00838,46.7763 -117.078,89.64161 -8.58563,14.68428 -15.61801,31.0749 -19.86428,48.86387 16.65169,4.45238 33.96329,9.14705 50.45274,13.53371 2.34527,0.62286 4.74873,1.68445 7.20695,1.40656 1.41634,-0.84941 1.53203,-2.73166 1.93386,-4.04307 7.02349,-22.8642 18.68275,-41.52516 33.57651,-56.42094 14.94374,-14.94026 33.68331,-26.58488 56.25362,-33.57179 z m -64.86732,74.70134 c -0.52505,1.00341 -1.58062,2.2628 -1.05489,3.51535 27.34369,0.81998 56.02156,0.11704 83.6774,0.35113 0.0712,1.31141 -0.0951,2.76108 0,3.69126 0.10405,1.01094 0.16019,0.45447 0.5271,0.87884 1.03505,1.19369 3.94438,0.70293 5.97682,0.70293 l 97.56487,0 c 0.74958,0 2.50683,0.58589 2.81281,-0.70293 1.62102,-0.19781 0.10543,-3.52973 0.87897,-4.5701 5.31348,-0.65161 12.14735,0.85009 17.57926,0 2.11936,-0.32922 0.19099,-2.65089 -0.5271,-4.04239 -9.29073,-17.98677 -23.09674,-32.97084 -39.02623,-43.41493 -17.17743,-11.26338 -40.09412,-20.51309 -69.08621,-19.15856 -26.28263,1.22312 -46.16882,9.6378 -62.58229,21.09214 -15.41197,10.75825 -27.87626,24.67389 -36.74051,41.65726 z m -12.65733,45.69964 c 0.47439,1.19368 2.01805,0.6954 2.81281,0.70293 38.03979,0.20534 76.05904,0 114.08924,0 37.95901,0 76.41569,0.60026 114.08924,0 0.93099,-0.0144 2.35691,0.40999 2.81282,-0.87884 0.96864,-0.154 0.50178,-1.4353 0.52779,-2.10949 0.10884,-2.84869 0,-5.34558 0,-8.26068 0,-3.22993 0.88581,-9.05943 -0.35186,-10.72197 -0.0643,-0.0876 -0.44565,0.0732 -0.52711,0 -0.0965,-0.0876 0.10816,-0.64407 0,-0.70294 -1.09049,-0.62285 -2.81829,0.6078 -3.69177,-0.1759 -0.41348,-1.88225 -0.37856,-3.0246 -1.75793,-3.69126 -2.61977,-1.26693 -9.33522,-0.35181 -13.5363,-0.35181 l -209.36909,0 c -0.20468,0.0294 -0.1903,0.27857 -0.17524,0.52772 -0.14855,0.0589 -0.38677,-0.0733 -0.52779,0 -0.98096,0.49075 -1.51628,4.07934 -1.93386,5.80006 -1.38142,5.68371 -2.27339,10.94168 -2.81213,16.87385 -0.0863,0.94454 -0.80161,2.4832 0.35118,2.98833 z m 228.00323,42.5354 c 1.76203,-0.16837 1.04257,-2.82679 2.10909,-3.69057 0.87623,-0.1102 1.79353,0.14647 2.46165,0 0.94879,-0.21287 0.79271,-0.63723 1.58199,-0.87884 0.31764,-4.98009 0.17594,-11.46187 0.17594,-16.69795 0,-1.70702 0.57571,-3.92603 -0.87897,-4.746 -0.66606,-0.98904 -2.09266,-0.52703 -2.98874,-0.52703 l -230.11233,0 c -0.20537,0.0287 -0.19031,0.27789 -0.17593,0.52703 0.0342,0.33675 -0.36692,0.20465 -0.52711,0.35181 -0.67017,0.60779 0.14718,5.12656 0.35118,6.6789 0.8064,6.12997 1.98451,11.16139 3.33992,15.99501 0.26834,0.9596 0.0897,2.46061 1.23082,2.81242 1.94549,0.95208 4.30856,0.52703 6.32867,0.52703 72.24883,0 145.64222,0.29295 217.10382,-0.35181 z m -6.32867,15.99501 c -4.04638,-0.49759 -8.57331,0 -13.00852,0 l -196.88767,0 c -1.04736,1.53797 0.59624,3.03214 1.582,4.92191 5.59688,10.7213 12.46429,19.67122 20.21614,27.41924 18.16797,18.17021 41.93557,31.57251 74.71184,34.09952 17.4978,1.347 34.08309,-1.72894 47.464,-6.32779 9.19487,24.90729 18.05707,50.14517 27.42377,74.87724 8.29607,-2.90756 16.96248,-7.04577 25.66586,-10.72197 7.53621,-3.18613 15.47152,-6.48863 22.85303,-9.66724 1.00629,-0.43188 2.33568,-0.79122 2.98806,-1.75767 -0.96385,-2.98833 -2.56501,-5.43389 -3.86702,-8.08546 -1.44988,-2.95137 -2.32131,-5.78569 -2.63689,-9.84313 -1.13636,-14.60352 10.2573,-25.44939 23.2042,-26.36518 7.45955,-0.52703 13.47401,2.77614 20.21615,4.04307 7.18846,-14.25924 14.61447,-29.35351 21.44697,-43.76675 0.97754,-2.06499 2.25902,-4.08618 2.46096,-6.32709 -20.80691,-6.57692 -43.29577,-13.25583 -64.51615,-19.68627 -3.13524,-0.95208 -6.37658,-2.45308 -9.31673,-2.81243 z m 28.12681,75.22906 c -8.30771,0.95892 -15.08407,7.54337 -15.82133,15.99432 -1.06654,12.21614 7.66012,20.62398 18.45821,20.56512 9.40231,-0.0513 18.34528,-7.07453 18.2823,-18.63154 -0.026,-4.79665 -2.53216,-10.04026 -5.09785,-12.65487 -3.45561,-3.52288 -8.94913,-6.06426 -15.82133,-5.27303 z"
       style="fill:none;stroke:#231f20;stroke-width:0.73241758;stroke-linecap:butt;stroke-linejoin:miter;stroke-miterlimit:10;stroke-dasharray:none;stroke-opacity:1"
       id="path5611"
       inkscape:connector-curvature="0"
       sodipodi:nodetypes="cccccccccccccccccssccccccccccscccscccccsccccccccccscsccccccsccscccccccccccccccccccsccc" />
  </g>
</svg>
