<?xml version="1.0" encoding="UTF-8" standalone="no"?>
<!-- Created with Inkscape (http://www.inkscape.org/) -->

<svg
   xmlns:dc="http://purl.org/dc/elements/1.1/"
   xmlns:cc="http://creativecommons.org/ns#"
   xmlns:rdf="http://www.w3.org/1999/02/22-rdf-syntax-ns#"
   xmlns:svg="http://www.w3.org/2000/svg"
   xmlns="http://www.w3.org/2000/svg"
   xmlns:sodipodi="http://sodipodi.sourceforge.net/DTD/sodipodi-0.dtd"
   xmlns:inkscape="http://www.inkscape.org/namespaces/inkscape"
   width="210mm"
   height="297mm"
   viewBox="0 0 744.09448819 1052.3622047"
   id="svg6770"
   version="1.1"
   inkscape:version="0.91 r13725"
   sodipodi:docname="Plaque 3.svg">
  <defs
     id="defs6772" />
  <sodipodi:namedview
     id="base"
     pagecolor="#ffffff"
     bordercolor="#666666"
     borderopacity="1.0"
     inkscape:pageopacity="0.0"
     inkscape:pageshadow="2"
     inkscape:zoom="256"
     inkscape:cx="447.56445"
     inkscape:cy="380.60352"
     inkscape:document-units="px"
     inkscape:current-layer="layer1"
     showgrid="false"
     inkscape:window-width="1920"
     inkscape:window-height="1017"
     inkscape:window-x="-8"
     inkscape:window-y="-8"
     inkscape:window-maximized="1" />
  <metadata
     id="metadata6775">
    <rdf:RDF>
      <cc:Work
         rdf:about="">
        <dc:format>image/svg+xml</dc:format>
        <dc:type
           rdf:resource="http://purl.org/dc/dcmitype/StillImage" />
        <dc:title></dc:title>
      </cc:Work>
    </rdf:RDF>
  </metadata>
  <g
     inkscape:label="Calque 1"
     inkscape:groupmode="layer"
     id="layer1">
    <path
       d="m 331.11919,385.56068 c 0.65922,-0.17591 2.12417,0.0999 2.28503,-1.05474 1.06243,-0.96098 0.0732,-2.3648 -0.17524,-3.33946 -4.02174,-15.95258 -7.86687,-31.96538 -11.77908,-47.63323 -0.5853,-2.36068 -0.92963,-4.89796 -2.10911,-7.03071 -0.62979,-0.20945 -1.17195,-0.11157 -1.58199,0 -38.06656,10.34621 -69.98037,28.61772 -94.40038,53.96101 -21.32242,22.12362 -38.30821,48.02063 -49.22202,80.50141 -1.56078,4.64197 -3.18659,9.53034 -3.69179,14.58915 0.85706,0.72826 2.6588,0.50102 3.51586,1.22996 -0.30052,1.70087 -0.96727,3.24979 -0.70372,4.5701 14.40092,3.48319 29.36522,7.3572 43.42112,10.89789 2.02149,0.50923 4.11621,1.17657 6.15276,1.05405 1.58953,-0.25872 0.90087,-3.10947 1.93386,-4.04238 1.64771,0.35728 2.75395,1.05611 3.86703,0.1759 0.64485,-0.50992 1.22329,-2.88908 1.75861,-4.746 7.39042,-25.64925 20.14978,-45.63258 36.38872,-61.86989 17.11037,-17.11067 37.88378,-30.24878 64.34034,-37.26306 z m -55.0229,77.16196 c -8.84099,13.31538 -15.93158,29.65672 -18.10708,50.26975 -2.13854,20.22562 2.25628,40.56282 8.43847,54.66395 0.59282,1.35522 0.73931,2.29155 1.75724,2.63651 0.8865,0.29911 1.61897,-0.87678 2.6369,-1.93358 2.84225,-2.94658 5.08348,-5.76174 7.73543,-8.26136 1.06927,0.78575 1.67715,2.0205 2.98807,2.10948 19.85747,-21.10514 39.46578,-42.43548 59.24248,-63.62824 9.88835,-10.5974 19.66649,-21.35019 29.70886,-31.81344 10.04238,-10.46804 19.93826,-21.07503 29.53363,-31.99002 -0.62294,-1.01642 -1.57516,-1.70977 -2.28573,-2.63652 2.60062,-2.89388 5.05405,-5.15668 7.73475,-8.08546 0.98165,-1.0746 2.10979,-2.1266 1.75794,-2.98765 -0.54901,-1.34221 -6.61415,-2.68511 -8.9649,-3.34013 -10.33536,-2.8795 -21.79887,-4.62281 -34.28029,-4.04239 -20.99932,0.97672 -38.01454,6.88766 -52.73788,15.6432 -14.23183,8.46397 -26.29569,20.04904 -35.15789,33.3959 z m 63.28475,165.2218 c 18.94908,0.26899 38.71141,0.26899 57.66049,0 l 0,8.7884 c -18.94155,0.20123 -38.02274,0.23819 -56.95676,0 -0.51274,-2.53043 -1.10624,-4.98557 -0.87897,-8.26068 -0.0151,-0.24982 -0.0294,-0.49828 0.17524,-0.52772 z m -116.37448,39.19665 c 0.15334,1.27103 3.50832,3.85827 4.92192,5.27304 1.90443,1.90826 3.84582,3.34082 5.44972,4.74532 22.34788,19.54186 47.7646,34.20287 79.80984,43.41494 5.2156,1.49964 10.68654,3.04855 16.34847,3.51535 4.05117,-25.77449 6.89275,-52.75363 10.72419,-78.74441 18.57531,0.11772 37.61886,-0.23409 55.90187,0.1759 2.90797,22.82176 6.07197,46.10964 8.96557,69.07719 0.21221,1.67486 0.82762,8.83082 1.75793,9.49132 0.80572,0.5743 5.45656,-0.8706 7.73475,-1.40655 19.19072,-4.50644 36.10326,-10.97728 50.80401,-19.15856 34.27962,-19.0819 61.46933,-45.4902 80.51288,-79.44667 7.17821,-12.8034 13.33096,-26.74847 17.75522,-42.18497 1.49438,-5.19775 3.40633,-10.44341 3.69179,-15.99433 -26.8892,-6.33668 -54.8545,-11.59466 -81.91963,-17.7527 -0.65923,-15.15861 -0.0657,-31.57045 -0.5271,-46.93029 -23.64442,-4.26142 -43.47931,-12.79108 -60.47263,-23.90389 -2.3439,-1.53318 -5.49353,-4.15874 -7.38358,-4.746 -3.27421,3.01433 -6.13837,6.14024 -9.49268,9.49133 -2.25628,2.2539 -6.15275,5.21143 -7.91068,7.73365 -0.41004,0.58589 -0.64484,1.69539 -0.35186,2.28539 0.3813,0.77206 1.4136,1.34701 2.10979,2.1088 6.33553,6.926 11.17736,16.2072 11.42654,28.82648 0.29299,14.79722 -5.49353,25.35698 -13.00922,32.86818 -7.25078,7.24906 -17.94485,13.30237 -32.87286,13.00669 -11.05277,-0.21766 -19.0148,-3.88223 -25.6659,-8.78839 -1.97014,-1.45036 -5.07596,-5.76858 -7.20765,-4.56942 -0.99603,0.56194 -1.63334,1.63379 -2.63621,2.63652 -34.30905,34.29595 -67.6878,67.49746 -101.95988,101.76946 -1.15005,1.14646 -6.66548,5.89384 -6.50461,7.20662 z"
       style="fill:none;stroke:#231f20;stroke-width:0.73241836;stroke-linecap:butt;stroke-linejoin:miter;stroke-miterlimit:10;stroke-dasharray:none;stroke-opacity:1"
       id="path5611"
       inkscape:connector-curvature="0"
       sodipodi:nodetypes="ccccccccccccccccccccccccccccccccscccccccccccccccccccccccccccccccccccccc" />
  </g>
</svg>
